<?xml version="1.0" encoding="UTF-8"?>
<svg xmlns="http://www.w3.org/2000/svg" version="1.1" width="100" height="100" viewBox="0 0 100 100"><rect x="0" y="0" width="100" height="100" fill="#ffffff"/><g transform="scale(3.448)"><g transform="translate(0,0)"><path fill-rule="evenodd" d="M8 0L8 1L9 1L9 2L8 2L8 5L9 5L9 4L11 4L11 5L10 5L10 10L9 10L9 11L8 11L8 12L9 12L9 14L10 14L10 13L11 13L11 15L10 15L10 17L11 17L11 16L12 16L12 17L13 17L13 16L12 16L12 14L13 14L13 15L14 15L14 18L13 18L13 21L15 21L15 19L16 19L16 20L17 20L17 21L16 21L16 23L15 23L15 22L14 22L14 23L11 23L11 24L10 24L10 21L11 21L11 20L12 20L12 19L11 19L11 18L10 18L10 19L8 19L8 18L5 18L5 17L7 17L7 16L9 16L9 15L8 15L8 13L7 13L7 12L4 12L4 11L7 11L7 10L6 10L6 9L7 9L7 8L6 8L6 9L4 9L4 8L0 8L0 10L2 10L2 9L4 9L4 11L3 11L3 12L2 12L2 11L1 11L1 13L0 13L0 17L4 17L4 18L3 18L3 19L2 19L2 20L1 20L1 21L3 21L3 20L4 20L4 21L8 21L8 22L9 22L9 25L8 25L8 29L12 29L12 28L14 28L14 27L15 27L15 28L17 28L17 27L18 27L18 29L22 29L22 27L20 27L20 28L19 28L19 27L18 27L18 26L17 26L17 25L18 25L18 24L19 24L19 23L20 23L20 25L21 25L21 26L22 26L22 25L23 25L23 27L24 27L24 28L26 28L26 27L27 27L27 29L28 29L28 27L29 27L29 25L28 25L28 27L27 27L27 26L26 26L26 25L27 25L27 24L26 24L26 22L27 22L27 23L28 23L28 24L29 24L29 23L28 23L28 22L29 22L29 21L27 21L27 18L28 18L28 15L29 15L29 13L27 13L27 12L25 12L25 9L27 9L27 8L24 8L24 11L23 11L23 9L22 9L22 8L21 8L21 10L20 10L20 9L18 9L18 8L20 8L20 7L21 7L21 6L20 6L20 3L21 3L21 2L20 2L20 3L19 3L19 5L18 5L18 3L16 3L16 2L17 2L17 1L16 1L16 0L15 0L15 1L16 1L16 2L15 2L15 3L14 3L14 5L13 5L13 3L12 3L12 4L11 4L11 2L14 2L14 0L12 0L12 1L11 1L11 0L10 0L10 1L9 1L9 0ZM19 0L19 1L21 1L21 0ZM16 4L16 5L14 5L14 6L13 6L13 5L12 5L12 6L11 6L11 8L12 8L12 6L13 6L13 8L14 8L14 9L15 9L15 10L14 10L14 11L11 11L11 13L12 13L12 12L13 12L13 14L14 14L14 15L15 15L15 17L16 17L16 19L17 19L17 18L18 18L18 15L19 15L19 14L17 14L17 12L18 12L18 13L20 13L20 15L21 15L21 16L22 16L22 17L21 17L21 19L20 19L20 17L19 17L19 19L18 19L18 20L26 20L26 18L25 18L25 17L24 17L24 18L25 18L25 19L23 19L23 16L22 16L22 13L23 13L23 14L24 14L24 16L26 16L26 17L27 17L27 15L26 15L26 13L25 13L25 12L23 12L23 11L21 11L21 12L18 12L18 10L17 10L17 7L18 7L18 6L17 6L17 4ZM8 6L8 7L9 7L9 6ZM14 6L14 7L15 7L15 6ZM16 6L16 7L17 7L17 6ZM19 6L19 7L20 7L20 6ZM8 8L8 9L9 9L9 8ZM28 8L28 10L26 10L26 11L28 11L28 12L29 12L29 11L28 11L28 10L29 10L29 8ZM11 9L11 10L12 10L12 9ZM16 10L16 11L15 11L15 12L14 12L14 14L16 14L16 13L15 13L15 12L16 12L16 11L17 11L17 10ZM19 10L19 11L20 11L20 10ZM1 13L1 14L2 14L2 15L1 15L1 16L2 16L2 15L3 15L3 16L5 16L5 15L6 15L6 16L7 16L7 15L6 15L6 14L7 14L7 13L5 13L5 14L3 14L3 13ZM16 16L16 17L17 17L17 16ZM0 18L0 19L1 19L1 18ZM4 18L4 20L5 20L5 18ZM6 19L6 20L8 20L8 21L9 21L9 20L8 20L8 19ZM10 19L10 20L11 20L11 19ZM21 21L21 24L24 24L24 21ZM17 22L17 24L16 24L16 25L17 25L17 24L18 24L18 22ZM22 22L22 23L23 23L23 22ZM12 24L12 26L11 26L11 25L10 25L10 26L9 26L9 28L10 28L10 26L11 26L11 28L12 28L12 26L13 26L13 27L14 27L14 26L15 26L15 27L17 27L17 26L15 26L15 24ZM25 24L25 25L26 25L26 24ZM13 25L13 26L14 26L14 25ZM24 26L24 27L26 27L26 26ZM0 0L0 7L7 7L7 0ZM1 1L1 6L6 6L6 1ZM2 2L2 5L5 5L5 2ZM22 0L22 7L29 7L29 0ZM23 1L23 6L28 6L28 1ZM24 2L24 5L27 5L27 2ZM0 22L0 29L7 29L7 22ZM1 23L1 28L6 28L6 23ZM2 24L2 27L5 27L5 24Z" fill="#000000"/></g></g></svg>
