<?xml version="1.0" encoding="UTF-8"?>
<svg xmlns="http://www.w3.org/2000/svg" version="1.1" width="100" height="100" viewBox="0 0 100 100"><rect x="0" y="0" width="100" height="100" fill="#ffffff"/><g transform="scale(3.448)"><g transform="translate(0,0)"><path fill-rule="evenodd" d="M9 0L9 1L8 1L8 2L9 2L9 3L8 3L8 4L10 4L10 7L11 7L11 4L12 4L12 5L13 5L13 6L12 6L12 9L13 9L13 8L14 8L14 9L17 9L17 10L15 10L15 11L14 11L14 12L15 12L15 11L16 11L16 12L17 12L17 13L18 13L18 12L17 12L17 11L18 11L18 10L20 10L20 8L21 8L21 10L22 10L22 11L20 11L20 12L24 12L24 10L25 10L25 9L26 9L26 8L25 8L25 9L24 9L24 8L23 8L23 9L22 9L22 8L21 8L21 6L20 6L20 7L19 7L19 6L18 6L18 5L21 5L21 4L20 4L20 3L21 3L21 0L19 0L19 1L17 1L17 0L15 0L15 1L17 1L17 2L16 2L16 3L17 3L17 4L18 4L18 5L16 5L16 4L12 4L12 2L13 2L13 1L11 1L11 2L10 2L10 0ZM19 1L19 2L20 2L20 1ZM14 2L14 3L15 3L15 2ZM17 2L17 3L18 3L18 4L19 4L19 3L18 3L18 2ZM10 3L10 4L11 4L11 3ZM8 5L8 7L9 7L9 5ZM13 6L13 7L14 7L14 8L15 8L15 7L16 7L16 8L19 8L19 7L18 7L18 6L17 6L17 7L16 7L16 6L15 6L15 7L14 7L14 6ZM0 8L0 10L1 10L1 9L2 9L2 10L3 10L3 11L1 11L1 12L0 12L0 15L1 15L1 17L0 17L0 21L1 21L1 18L2 18L2 19L3 19L3 21L4 21L4 20L5 20L5 21L7 21L7 20L8 20L8 23L9 23L9 22L10 22L10 20L11 20L11 21L12 21L12 22L13 22L13 23L12 23L12 25L13 25L13 24L14 24L14 25L16 25L16 26L15 26L15 27L14 27L14 28L15 28L15 29L16 29L16 28L17 28L17 29L18 29L18 28L19 28L19 29L20 29L20 28L22 28L22 27L24 27L24 28L23 28L23 29L25 29L25 28L26 28L26 29L27 29L27 28L28 28L28 26L29 26L29 25L28 25L28 24L29 24L29 23L28 23L28 24L26 24L26 25L25 25L25 23L27 23L27 22L29 22L29 20L28 20L28 19L27 19L27 16L28 16L28 15L27 15L27 14L25 14L25 13L27 13L27 12L28 12L28 11L27 11L27 12L26 12L26 11L25 11L25 13L19 13L19 14L18 14L18 16L14 16L14 15L17 15L17 14L15 14L15 13L12 13L12 11L13 11L13 10L11 10L11 11L10 11L10 9L11 9L11 8L6 8L6 9L5 9L5 8ZM27 8L27 9L28 9L28 10L29 10L29 9L28 9L28 8ZM6 9L6 10L7 10L7 11L6 11L6 12L5 12L5 10L4 10L4 12L3 12L3 16L2 16L2 18L3 18L3 19L4 19L4 17L5 17L5 16L9 16L9 15L11 15L11 17L10 17L10 18L9 18L9 17L6 17L6 18L9 18L9 20L10 20L10 18L13 18L13 19L12 19L12 21L15 21L15 22L16 22L16 21L15 21L15 20L14 20L14 19L15 19L15 18L16 18L16 19L17 19L17 20L18 20L18 21L20 21L20 18L19 18L19 16L18 16L18 17L17 17L17 18L16 18L16 17L14 17L14 16L13 16L13 17L12 17L12 15L13 15L13 14L12 14L12 13L11 13L11 12L10 12L10 13L11 13L11 14L9 14L9 15L8 15L8 14L7 14L7 13L8 13L8 12L9 12L9 11L8 11L8 10L7 10L7 9ZM23 9L23 10L24 10L24 9ZM7 11L7 12L6 12L6 13L7 13L7 12L8 12L8 11ZM1 12L1 13L2 13L2 12ZM28 13L28 14L29 14L29 13ZM1 14L1 15L2 15L2 14ZM6 14L6 15L7 15L7 14ZM19 14L19 15L21 15L21 16L20 16L20 17L25 17L25 21L26 21L26 20L27 20L27 19L26 19L26 17L25 17L25 16L27 16L27 15L24 15L24 16L22 16L22 15L23 15L23 14L22 14L22 15L21 15L21 14ZM28 17L28 18L29 18L29 17ZM17 18L17 19L18 19L18 20L19 20L19 18ZM21 18L21 19L22 19L22 20L23 20L23 18ZM5 19L5 20L7 20L7 19ZM21 21L21 24L24 24L24 21ZM18 22L18 23L14 23L14 24L16 24L16 25L17 25L17 24L18 24L18 25L19 25L19 26L20 26L20 27L19 27L19 28L20 28L20 27L21 27L21 26L25 26L25 25L21 25L21 26L20 26L20 24L19 24L19 22ZM22 22L22 23L23 23L23 22ZM8 24L8 29L9 29L9 25L10 25L10 24ZM10 26L10 27L11 27L11 29L12 29L12 27L13 27L13 26ZM17 27L17 28L18 28L18 27ZM26 27L26 28L27 28L27 27ZM0 0L0 7L7 7L7 0ZM1 1L1 6L6 6L6 1ZM2 2L2 5L5 5L5 2ZM22 0L22 7L29 7L29 0ZM23 1L23 6L28 6L28 1ZM24 2L24 5L27 5L27 2ZM0 22L0 29L7 29L7 22ZM1 23L1 28L6 28L6 23ZM2 24L2 27L5 27L5 24Z" fill="#000000"/></g></g></svg>
