<?xml version="1.0" encoding="UTF-8"?>
<svg xmlns="http://www.w3.org/2000/svg" version="1.1" width="100" height="100" viewBox="0 0 100 100"><rect x="0" y="0" width="100" height="100" fill="#ffffff"/><g transform="scale(3.448)"><g transform="translate(0,0)"><path fill-rule="evenodd" d="M8 0L8 4L10 4L10 3L11 3L11 4L12 4L12 2L11 2L11 0ZM12 0L12 1L13 1L13 0ZM14 0L14 1L15 1L15 0ZM17 1L17 2L15 2L15 3L14 3L14 2L13 2L13 3L14 3L14 4L13 4L13 5L11 5L11 6L10 6L10 7L9 7L9 5L8 5L8 7L9 7L9 8L10 8L10 7L11 7L11 6L12 6L12 8L11 8L11 9L9 9L9 10L8 10L8 9L7 9L7 8L4 8L4 11L3 11L3 10L2 10L2 11L1 11L1 10L0 10L0 12L1 12L1 16L2 16L2 17L0 17L0 18L2 18L2 17L3 17L3 20L4 20L4 21L5 21L5 20L6 20L6 21L7 21L7 20L10 20L10 21L11 21L11 20L12 20L12 21L13 21L13 22L15 22L15 23L14 23L14 24L13 24L13 23L12 23L12 24L10 24L10 23L11 23L11 22L9 22L9 21L8 21L8 22L9 22L9 23L8 23L8 25L9 25L9 27L8 27L8 29L9 29L9 28L10 28L10 27L11 27L11 28L12 28L12 29L14 29L14 27L15 27L15 28L16 28L16 26L19 26L19 27L20 27L20 29L22 29L22 28L23 28L23 29L26 29L26 27L27 27L27 29L28 29L28 28L29 28L29 25L28 25L28 24L29 24L29 17L28 17L28 16L29 16L29 13L28 13L28 12L29 12L29 8L25 8L25 9L24 9L24 8L23 8L23 9L22 9L22 10L23 10L23 9L24 9L24 12L26 12L26 11L25 11L25 10L28 10L28 11L27 11L27 13L22 13L22 11L20 11L20 12L19 12L19 8L20 8L20 10L21 10L21 5L19 5L19 4L20 4L20 3L21 3L21 2L20 2L20 1ZM9 2L9 3L10 3L10 2ZM18 2L18 3L16 3L16 5L15 5L15 9L13 9L13 8L14 8L14 6L13 6L13 8L12 8L12 9L11 9L11 10L9 10L9 11L8 11L8 10L7 10L7 9L5 9L5 10L7 10L7 11L6 11L6 12L5 12L5 13L3 13L3 11L2 11L2 13L3 13L3 15L2 15L2 16L4 16L4 18L5 18L5 19L6 19L6 20L7 20L7 19L8 19L8 14L9 14L9 15L10 15L10 16L9 16L9 17L10 17L10 18L9 18L9 19L10 19L10 20L11 20L11 18L12 18L12 17L13 17L13 18L15 18L15 17L16 17L16 15L17 15L17 14L18 14L18 17L17 17L17 19L16 19L16 20L15 20L15 19L14 19L14 21L16 21L16 20L17 20L17 19L18 19L18 21L19 21L19 22L20 22L20 21L19 21L19 20L20 20L20 18L21 18L21 19L22 19L22 17L26 17L26 18L23 18L23 20L26 20L26 21L25 21L25 22L27 22L27 23L25 23L25 24L26 24L26 25L22 25L22 27L24 27L24 28L25 28L25 26L28 26L28 25L27 25L27 23L28 23L28 20L27 20L27 19L28 19L28 18L27 18L27 15L28 15L28 14L27 14L27 15L25 15L25 14L23 14L23 15L21 15L21 14L22 14L22 13L19 13L19 12L18 12L18 13L17 13L17 11L18 11L18 10L17 10L17 9L16 9L16 6L17 6L17 7L18 7L18 6L19 6L19 7L20 7L20 6L19 6L19 5L18 5L18 3L19 3L19 2ZM17 5L17 6L18 6L18 5ZM0 8L0 9L2 9L2 8ZM12 9L12 10L11 10L11 11L10 11L10 13L11 13L11 12L12 12L12 13L13 13L13 14L15 14L15 15L14 15L14 16L13 16L13 15L12 15L12 16L11 16L11 17L12 17L12 16L13 16L13 17L15 17L15 15L16 15L16 12L15 12L15 13L14 13L14 11L16 11L16 9L15 9L15 10L13 10L13 9ZM7 11L7 12L6 12L6 13L7 13L7 14L6 14L6 15L4 15L4 16L6 16L6 17L7 17L7 16L6 16L6 15L7 15L7 14L8 14L8 11ZM12 11L12 12L13 12L13 11ZM10 14L10 15L11 15L11 14ZM19 15L19 16L20 16L20 17L22 17L22 16L21 16L21 15ZM24 15L24 16L25 16L25 15ZM6 18L6 19L7 19L7 18ZM26 18L26 19L27 19L27 18ZM12 19L12 20L13 20L13 19ZM0 20L0 21L2 21L2 20ZM21 21L21 24L24 24L24 21ZM16 22L16 23L15 23L15 25L13 25L13 24L12 24L12 25L10 25L10 24L9 24L9 25L10 25L10 26L12 26L12 25L13 25L13 26L15 26L15 25L17 25L17 24L16 24L16 23L18 23L18 22ZM22 22L22 23L23 23L23 22ZM18 24L18 25L19 25L19 24ZM20 25L20 27L21 27L21 25ZM12 27L12 28L13 28L13 27ZM17 27L17 29L18 29L18 27ZM0 0L0 7L7 7L7 0ZM1 1L1 6L6 6L6 1ZM2 2L2 5L5 5L5 2ZM22 0L22 7L29 7L29 0ZM23 1L23 6L28 6L28 1ZM24 2L24 5L27 5L27 2ZM0 22L0 29L7 29L7 22ZM1 23L1 28L6 28L6 23ZM2 24L2 27L5 27L5 24Z" fill="#000000"/></g></g></svg>
