<?xml version="1.0" encoding="UTF-8"?>
<svg xmlns="http://www.w3.org/2000/svg" version="1.1" width="100" height="100" viewBox="0 0 100 100"><rect x="0" y="0" width="100" height="100" fill="#ffffff"/><g transform="scale(3.448)"><g transform="translate(0,0)"><path fill-rule="evenodd" d="M8 0L8 1L10 1L10 0ZM15 0L15 1L14 1L14 2L11 2L11 4L10 4L10 3L9 3L9 2L8 2L8 5L9 5L9 6L8 6L8 7L9 7L9 8L8 8L8 9L7 9L7 8L6 8L6 9L5 9L5 10L6 10L6 11L2 11L2 12L3 12L3 13L1 13L1 14L2 14L2 15L1 15L1 16L0 16L0 17L1 17L1 18L0 18L0 19L1 19L1 18L2 18L2 17L3 17L3 19L2 19L2 20L1 20L1 21L5 21L5 20L6 20L6 21L8 21L8 22L10 22L10 23L14 23L14 22L15 22L15 21L14 21L14 20L13 20L13 18L14 18L14 17L12 17L12 16L14 16L14 15L15 15L15 14L16 14L16 13L15 13L15 14L14 14L14 13L13 13L13 14L12 14L12 12L16 12L16 11L17 11L17 10L18 10L18 12L17 12L17 14L19 14L19 15L18 15L18 18L17 18L17 19L16 19L16 17L17 17L17 16L16 16L16 17L15 17L15 19L16 19L16 20L17 20L17 21L16 21L16 23L15 23L15 24L14 24L14 26L13 26L13 24L12 24L12 25L11 25L11 24L10 24L10 26L9 26L9 25L8 25L8 29L9 29L9 28L10 28L10 29L11 29L11 28L12 28L12 29L13 29L13 28L12 28L12 26L13 26L13 27L14 27L14 29L15 29L15 28L17 28L17 27L18 27L18 29L22 29L22 27L20 27L20 28L19 28L19 27L18 27L18 26L17 26L17 25L18 25L18 24L19 24L19 23L20 23L20 25L21 25L21 26L22 26L22 25L23 25L23 27L24 27L24 28L26 28L26 27L27 27L27 29L28 29L28 27L29 27L29 25L28 25L28 22L29 22L29 21L27 21L27 18L28 18L28 15L29 15L29 13L27 13L27 12L25 12L25 9L27 9L27 8L24 8L24 11L23 11L23 9L22 9L22 8L21 8L21 10L20 10L20 9L18 9L18 8L20 8L20 7L21 7L21 6L20 6L20 3L21 3L21 2L20 2L20 3L19 3L19 5L18 5L18 3L17 3L17 5L16 5L16 8L17 8L17 10L16 10L16 11L15 11L15 10L14 10L14 11L11 11L11 13L10 13L10 12L9 12L9 10L10 10L10 9L9 9L9 8L10 8L10 7L11 7L11 8L12 8L12 7L13 7L13 9L15 9L15 5L14 5L14 4L13 4L13 5L12 5L12 3L16 3L16 1L17 1L17 0ZM19 0L19 1L21 1L21 0ZM10 5L10 6L9 6L9 7L10 7L10 6L11 6L11 7L12 7L12 5ZM13 5L13 7L14 7L14 5ZM17 6L17 7L18 7L18 6ZM19 6L19 7L20 7L20 6ZM0 8L0 10L1 10L1 9L2 9L2 10L3 10L3 9L4 9L4 8ZM28 8L28 10L26 10L26 11L28 11L28 12L29 12L29 11L28 11L28 10L29 10L29 8ZM6 9L6 10L7 10L7 11L6 11L6 12L7 12L7 11L8 11L8 10L9 10L9 9L8 9L8 10L7 10L7 9ZM19 10L19 11L20 11L20 10ZM0 11L0 12L1 12L1 11ZM21 11L21 12L18 12L18 13L20 13L20 15L21 15L21 16L22 16L22 17L21 17L21 19L20 19L20 17L19 17L19 19L18 19L18 20L26 20L26 18L25 18L25 17L24 17L24 18L25 18L25 19L23 19L23 16L22 16L22 13L23 13L23 14L24 14L24 16L26 16L26 17L27 17L27 15L26 15L26 13L25 13L25 12L23 12L23 11ZM4 12L4 13L3 13L3 14L4 14L4 15L5 15L5 17L4 17L4 19L3 19L3 20L5 20L5 19L6 19L6 20L8 20L8 21L10 21L10 22L12 22L12 21L10 21L10 20L12 20L12 19L10 19L10 17L8 17L8 16L12 16L12 14L11 14L11 15L10 15L10 13L9 13L9 12L8 12L8 13L9 13L9 14L8 14L8 16L7 16L7 15L6 15L6 14L7 14L7 13L5 13L5 12ZM13 14L13 15L14 15L14 14ZM6 16L6 17L5 17L5 18L6 18L6 19L7 19L7 18L8 18L8 17L7 17L7 16ZM6 17L6 18L7 18L7 17ZM11 17L11 18L12 18L12 17ZM8 19L8 20L10 20L10 19ZM21 21L21 24L24 24L24 21ZM17 22L17 24L16 24L16 25L17 25L17 24L18 24L18 22ZM22 22L22 23L23 23L23 22ZM26 22L26 24L25 24L25 25L26 25L26 26L24 26L24 27L26 27L26 26L27 26L27 27L28 27L28 25L26 25L26 24L27 24L27 22ZM10 26L10 28L11 28L11 26ZM14 26L14 27L17 27L17 26ZM0 0L0 7L7 7L7 0ZM1 1L1 6L6 6L6 1ZM2 2L2 5L5 5L5 2ZM22 0L22 7L29 7L29 0ZM23 1L23 6L28 6L28 1ZM24 2L24 5L27 5L27 2ZM0 22L0 29L7 29L7 22ZM1 23L1 28L6 28L6 23ZM2 24L2 27L5 27L5 24Z" fill="#000000"/></g></g></svg>
